<svg width="200" height="200" viewBox="0 0 200 200" xmlns="http://www.w3.org/2000/svg">
    <defs>
        <radialGradient id="algo_mal_grad" cx="50%" cy="50%" r="50%">
            <stop offset="0%" stop-color="#03A9F4" stop-opacity="1"/>
            <stop offset="100%" stop-color="#03A9F4" stop-opacity="0.2"/>
        </radialGradient>
    </defs>
    <g transform="translate(100,100)">
        
        <path d="M 30.00,0.00 L 37.22,6.56 L 35.51,12.93 L 25.98,15.00 L 17.01,14.27 L 14.27,17.01 L 15.00,25.98 L 12.93,35.51 L 6.56,37.22 L 0.00,30.00 L -3.86,21.87 L -7.59,20.87 L -15.00,25.98 L -24.29,28.95 L -28.95,24.29 L -25.98,15.00 L -20.87,7.59 L -21.87,3.86 L -30.00,0.00 L -37.22,-6.56 L -35.51,-12.93 L -25.98,-15.00 L -17.01,-14.27 L -14.27,-17.01 L -15.00,-25.98 L -12.93,-35.51 L -6.56,-37.22 L -0.00,-30.00 L 3.86,-21.87 L 7.59,-20.87 L 15.00,-25.98 L 24.29,-28.95 L 28.95,-24.29 L 25.98,-15.00 L 20.87,-7.59 L 21.87,-3.86 L 30.00,-0.00 Z" fill="url(#algo_mal_grad)" stroke="#03A9F4" stroke-opacity="0.3" stroke-width="1.5" opacity="0.7">
          <animateTransform attributeName="transform" attributeType="XML"
            type="scale" values="1;1.03;1" dur="4s" repeatCount="indefinite"/>
        </path>
        <path d="M 40.00,0.00 L 49.63,8.75 L 47.35,17.24 L 34.64,20.00 L 22.68,19.03 L 19.03,22.68 L 20.00,34.64 L 17.24,47.35 L 8.75,49.63 L 0.00,40.00 L -5.14,29.16 L -10.13,27.82 L -20.00,34.64 L -32.39,38.60 L -38.60,32.39 L -34.64,20.00 L -27.82,10.13 L -29.16,5.14 L -40.00,0.00 L -49.63,-8.75 L -47.35,-17.24 L -34.64,-20.00 L -22.68,-19.03 L -19.03,-22.68 L -20.00,-34.64 L -17.24,-47.35 L -8.75,-49.63 L -0.00,-40.00 L 5.14,-29.16 L 10.13,-27.82 L 20.00,-34.64 L 32.39,-38.60 L 38.60,-32.39 L 34.64,-20.00 L 27.82,-10.13 L 29.16,-5.14 L 40.00,-0.00 Z" fill="url(#algo_mal_grad)" stroke="#03A9F4" stroke-opacity="0.4" stroke-width="1.5" opacity="0.5499999999999999">
          <animateTransform attributeName="transform" attributeType="XML"
            type="scale" values="1;1.03;1" dur="4s" repeatCount="indefinite"/>
        </path>
        <path d="M 50.00,0.00 L 62.03,10.94 L 59.19,21.54 L 43.30,25.00 L 28.35,23.79 L 23.79,28.35 L 25.00,43.30 L 21.54,59.19 L 10.94,62.03 L 0.00,50.00 L -6.43,36.45 L -12.66,34.78 L -25.00,43.30 L -40.49,48.25 L -48.25,40.49 L -43.30,25.00 L -34.78,12.66 L -36.45,6.43 L -50.00,0.00 L -62.03,-10.94 L -59.19,-21.54 L -43.30,-25.00 L -28.35,-23.79 L -23.79,-28.35 L -25.00,-43.30 L -21.54,-59.19 L -10.94,-62.03 L -0.00,-50.00 L 6.43,-36.45 L 12.66,-34.78 L 25.00,-43.30 L 40.49,-48.25 L 48.25,-40.49 L 43.30,-25.00 L 34.78,-12.66 L 36.45,-6.43 L 50.00,-0.00 Z" fill="url(#algo_mal_grad)" stroke="#03A9F4" stroke-opacity="0.5" stroke-width="1.5" opacity="0.39999999999999997">
          <animateTransform attributeName="transform" attributeType="XML"
            type="scale" values="1;1.03;1" dur="4s" repeatCount="indefinite"/>
        </path>
        <path d="M 60.00,0.00 L 74.44,13.13 L 71.03,25.85 L 51.96,30.00 L 34.02,28.55 L 28.55,34.02 L 30.00,51.96 L 25.85,71.03 L 13.13,74.44 L 0.00,60.00 L -7.71,43.74 L -15.19,41.73 L -30.00,51.96 L -48.59,57.90 L -57.90,48.59 L -51.96,30.00 L -41.73,15.19 L -43.74,7.71 L -60.00,0.00 L -74.44,-13.13 L -71.03,-25.85 L -51.96,-30.00 L -34.02,-28.55 L -28.55,-34.02 L -30.00,-51.96 L -25.85,-71.03 L -13.13,-74.44 L -0.00,-60.00 L 7.71,-43.74 L 15.19,-41.73 L 30.00,-51.96 L 48.59,-57.90 L 57.90,-48.59 L 51.96,-30.00 L 41.73,-15.19 L 43.74,-7.71 L 60.00,-0.00 Z" fill="url(#algo_mal_grad)" stroke="#03A9F4" stroke-opacity="0.6000000000000001" stroke-width="1.5" opacity="0.25">
          <animateTransform attributeName="transform" attributeType="XML"
            type="scale" values="1;1.03;1" dur="4s" repeatCount="indefinite"/>
        </path>
    </g>
</svg>