<svg width="200" height="200" viewBox="0 0 200 200" xmlns="http://www.w3.org/2000/svg">
    <defs>
        <radialGradient id="bien_grad" cx="50%" cy="50%" r="50%">
            <stop offset="0%" stop-color="#8BC34A" stop-opacity="1"/>
            <stop offset="100%" stop-color="#8BC34A" stop-opacity="0.2"/>
        </radialGradient>
    </defs>
    <g transform="translate(100,100)">
        
        <path d="M 30.00,0.00 L 36.33,6.41 L 36.52,13.29 L 29.88,17.25 L 20.62,17.31 L 13.85,16.50 L 11.10,19.23 L 9.73,26.72 L 6.21,35.24 L 0.00,39.00 L -6.21,35.24 L -9.73,26.72 L -11.10,19.23 L -13.85,16.50 L -20.62,17.31 L -29.88,17.25 L -36.52,13.29 L -36.33,6.41 L -30.00,0.00 L -22.75,-4.01 L -19.86,-7.23 L -22.08,-12.75 L -25.34,-21.26 L -24.72,-29.46 L -18.90,-32.73 L -10.80,-29.66 L -4.20,-23.85 L -0.00,-21.00 L 4.20,-23.85 L 10.80,-29.66 L 18.90,-32.73 L 24.72,-29.46 L 25.34,-21.26 L 22.08,-12.75 L 19.86,-7.23 L 22.75,-4.01 L 30.00,-0.00 Z" fill="url(#bien_grad)" stroke="#8BC34A" stroke-opacity="0.3" stroke-width="1.5" opacity="0.7">
          <animateTransform attributeName="transform" attributeType="XML"
            type="scale" values="1;1.03;1" dur="4s" repeatCount="indefinite"/>
        </path>
        <path d="M 40.00,0.00 L 48.45,8.54 L 48.69,17.72 L 39.84,23.00 L 27.50,23.07 L 18.46,22.00 L 14.80,25.64 L 12.97,35.63 L 8.29,46.99 L 0.00,52.00 L -8.29,46.99 L -12.97,35.63 L -14.80,25.64 L -18.46,22.00 L -27.50,23.07 L -39.84,23.00 L -48.69,17.72 L -48.45,8.54 L -40.00,0.00 L -30.34,-5.35 L -26.48,-9.64 L -29.44,-17.00 L -33.79,-28.35 L -32.96,-39.28 L -25.20,-43.64 L -14.39,-39.55 L -5.61,-31.80 L -0.00,-28.00 L 5.61,-31.80 L 14.39,-39.55 L 25.20,-43.64 L 32.96,-39.28 L 33.79,-28.35 L 29.44,-17.00 L 26.48,-9.64 L 30.34,-5.35 L 40.00,-0.00 Z" fill="url(#bien_grad)" stroke="#8BC34A" stroke-opacity="0.4" stroke-width="1.5" opacity="0.5499999999999999">
          <animateTransform attributeName="transform" attributeType="XML"
            type="scale" values="1;1.03;1" dur="4s" repeatCount="indefinite"/>
        </path>
        <path d="M 50.00,0.00 L 60.56,10.68 L 60.87,22.15 L 49.80,28.75 L 34.37,28.84 L 23.08,27.50 L 18.50,32.05 L 16.21,44.54 L 10.36,58.74 L 0.00,65.00 L -10.36,58.74 L -16.21,44.54 L -18.50,32.05 L -23.08,27.50 L -34.37,28.84 L -49.80,28.75 L -60.87,22.15 L -60.56,10.68 L -50.00,0.00 L -37.92,-6.69 L -33.10,-12.05 L -36.81,-21.25 L -42.23,-35.44 L -41.20,-49.10 L -31.50,-54.55 L -17.99,-49.43 L -7.01,-39.75 L -0.00,-35.00 L 7.01,-39.75 L 17.99,-49.43 L 31.50,-54.55 L 41.20,-49.10 L 42.23,-35.44 L 36.81,-21.25 L 33.10,-12.05 L 37.92,-6.69 L 50.00,-0.00 Z" fill="url(#bien_grad)" stroke="#8BC34A" stroke-opacity="0.5" stroke-width="1.5" opacity="0.39999999999999997">
          <animateTransform attributeName="transform" attributeType="XML"
            type="scale" values="1;1.03;1" dur="4s" repeatCount="indefinite"/>
        </path>
        <path d="M 60.00,0.00 L 72.67,12.81 L 73.04,26.58 L 59.76,34.50 L 41.25,34.61 L 27.69,33.01 L 22.21,38.46 L 19.45,53.44 L 12.43,70.48 L 0.00,78.00 L -12.43,70.48 L -19.45,53.44 L -22.21,38.46 L -27.69,33.01 L -41.25,34.61 L -59.76,34.50 L -73.04,26.58 L -72.67,12.81 L -60.00,0.00 L -45.51,-8.02 L -39.72,-14.46 L -44.17,-25.50 L -50.68,-42.52 L -49.44,-58.92 L -37.79,-65.46 L -21.59,-59.32 L -8.41,-47.69 L -0.00,-42.00 L 8.41,-47.69 L 21.59,-59.32 L 37.79,-65.46 L 49.44,-58.92 L 50.68,-42.52 L 44.17,-25.50 L 39.72,-14.46 L 45.51,-8.02 L 60.00,-0.00 Z" fill="url(#bien_grad)" stroke="#8BC34A" stroke-opacity="0.6000000000000001" stroke-width="1.5" opacity="0.25">
          <animateTransform attributeName="transform" attributeType="XML"
            type="scale" values="1;1.03;1" dur="4s" repeatCount="indefinite"/>
        </path>
    </g>
</svg>