<svg width="200" height="200" viewBox="0 0 200 200" xmlns="http://www.w3.org/2000/svg">
    <defs>
        <radialGradient id="muy_mal_grad" cx="50%" cy="50%" r="50%">
            <stop offset="0%" stop-color="#673AB7" stop-opacity="1"/>
            <stop offset="100%" stop-color="#673AB7" stop-opacity="0.2"/>
        </radialGradient>
    </defs>
    <g transform="translate(100,100)">
        
        <path d="M 30.00,0.00 L 38.27,6.75 L 25.30,9.21 L 19.23,11.10 L 27.41,23.00 L 23.00,27.41 L 11.10,19.23 L 9.21,25.30 L 6.75,38.27 L 0.00,30.00 L -3.67,20.82 L -11.31,31.08 L -18.90,32.73 L -15.57,18.55 L -18.55,15.57 L -32.73,18.90 L -31.08,11.31 L -20.82,3.67 L -30.00,0.00 L -38.27,-6.75 L -25.30,-9.21 L -19.23,-11.10 L -27.41,-23.00 L -23.00,-27.41 L -11.10,-19.23 L -9.21,-25.30 L -6.75,-38.27 L -0.00,-30.00 L 3.67,-20.82 L 11.31,-31.08 L 18.90,-32.73 L 15.57,-18.55 L 18.55,-15.57 L 32.73,-18.90 L 31.08,-11.31 L 20.82,-3.67 L 30.00,-0.00 Z" fill="url(#muy_mal_grad)" stroke="#673AB7" stroke-opacity="0.3" stroke-width="1.5" opacity="0.7">
          <animateTransform attributeName="transform" attributeType="XML"
            type="scale" values="1;1.03;1" dur="4s" repeatCount="indefinite"/>
        </path>
        <path d="M 40.00,0.00 L 51.03,9.00 L 33.73,12.28 L 25.64,14.80 L 36.55,30.67 L 30.67,36.55 L 14.80,25.64 L 12.28,33.73 L 9.00,51.03 L 0.00,40.00 L -4.89,27.75 L -15.08,41.44 L -25.20,43.64 L -20.75,24.73 L -24.73,20.75 L -43.64,25.20 L -41.44,15.08 L -27.75,4.89 L -40.00,0.00 L -51.03,-9.00 L -33.73,-12.28 L -25.64,-14.80 L -36.55,-30.67 L -30.67,-36.55 L -14.80,-25.64 L -12.28,-33.73 L -9.00,-51.03 L -0.00,-40.00 L 4.89,-27.75 L 15.08,-41.44 L 25.20,-43.64 L 20.75,-24.73 L 24.73,-20.75 L 43.64,-25.20 L 41.44,-15.08 L 27.75,-4.89 L 40.00,-0.00 Z" fill="url(#muy_mal_grad)" stroke="#673AB7" stroke-opacity="0.4" stroke-width="1.5" opacity="0.5499999999999999">
          <animateTransform attributeName="transform" attributeType="XML"
            type="scale" values="1;1.03;1" dur="4s" repeatCount="indefinite"/>
        </path>
        <path d="M 50.00,0.00 L 63.79,11.25 L 42.16,15.35 L 32.05,18.50 L 45.69,38.34 L 38.34,45.69 L 18.50,32.05 L 15.35,42.16 L 11.25,63.79 L 0.00,50.00 L -6.12,34.69 L -18.86,51.81 L -31.50,54.55 L -25.94,30.92 L -30.92,25.94 L -54.55,31.50 L -51.81,18.86 L -34.69,6.12 L -50.00,0.00 L -63.79,-11.25 L -42.16,-15.35 L -32.05,-18.50 L -45.69,-38.34 L -38.34,-45.69 L -18.50,-32.05 L -15.35,-42.16 L -11.25,-63.79 L -0.00,-50.00 L 6.12,-34.69 L 18.86,-51.81 L 31.50,-54.55 L 25.94,-30.92 L 30.92,-25.94 L 54.55,-31.50 L 51.81,-18.86 L 34.69,-6.12 L 50.00,-0.00 Z" fill="url(#muy_mal_grad)" stroke="#673AB7" stroke-opacity="0.5" stroke-width="1.5" opacity="0.39999999999999997">
          <animateTransform attributeName="transform" attributeType="XML"
            type="scale" values="1;1.03;1" dur="4s" repeatCount="indefinite"/>
        </path>
        <path d="M 60.00,0.00 L 76.55,13.50 L 50.60,18.42 L 38.46,22.21 L 54.83,46.00 L 46.00,54.83 L 22.21,38.46 L 18.42,50.60 L 13.50,76.55 L 0.00,60.00 L -7.34,41.63 L -22.63,62.17 L -37.79,65.46 L -31.13,37.10 L -37.10,31.13 L -65.46,37.79 L -62.17,22.63 L -41.63,7.34 L -60.00,0.00 L -76.55,-13.50 L -50.60,-18.42 L -38.46,-22.21 L -54.83,-46.00 L -46.00,-54.83 L -22.21,-38.46 L -18.42,-50.60 L -13.50,-76.55 L -0.00,-60.00 L 7.34,-41.63 L 22.63,-62.17 L 37.79,-65.46 L 31.13,-37.10 L 37.10,-31.13 L 65.46,-37.79 L 62.17,-22.63 L 41.63,-7.34 L 60.00,-0.00 Z" fill="url(#muy_mal_grad)" stroke="#673AB7" stroke-opacity="0.6000000000000001" stroke-width="1.5" opacity="0.25">
          <animateTransform attributeName="transform" attributeType="XML"
            type="scale" values="1;1.03;1" dur="4s" repeatCount="indefinite"/>
        </path>
    </g>
</svg>