<svg width="200" height="200" viewBox="0 0 200 200" xmlns="http://www.w3.org/2000/svg">
    <defs>
        <radialGradient id="muy_bien_grad" cx="50%" cy="50%" r="50%">
            <stop offset="0%" stop-color="#FFEB3B" stop-opacity="1"/>
            <stop offset="100%" stop-color="#FFEB3B" stop-opacity="0.2"/>
        </radialGradient>
    </defs>
    <g transform="translate(100,100)">
        
        <path d="M 30.00,0.00 L 35.24,6.21 L 36.52,13.29 L 32.73,18.90 L 25.34,21.26 L 17.31,20.62 L 11.10,19.23 L 7.23,19.86 L 4.20,23.85 L 0.00,30.00 L -6.21,35.24 L -13.29,36.52 L -18.90,32.73 L -21.26,25.34 L -20.62,17.31 L -19.23,11.10 L -19.86,7.23 L -23.85,4.20 L -30.00,0.00 L -35.24,-6.21 L -36.52,-13.29 L -32.73,-18.90 L -25.34,-21.26 L -17.31,-20.62 L -11.10,-19.23 L -7.23,-19.86 L -4.20,-23.85 L -0.00,-30.00 L 6.21,-35.24 L 13.29,-36.52 L 18.90,-32.73 L 21.26,-25.34 L 20.62,-17.31 L 19.23,-11.10 L 19.86,-7.23 L 23.85,-4.20 L 30.00,-0.00 Z" fill="url(#muy_bien_grad)" stroke="#FFEB3B" stroke-opacity="0.3" stroke-width="1.5" opacity="0.7">
          <animateTransform attributeName="transform" attributeType="XML"
            type="scale" values="1;1.03;1" dur="4s" repeatCount="indefinite"/>
        </path>
        <path d="M 40.00,0.00 L 46.99,8.29 L 48.69,17.72 L 43.64,25.20 L 33.79,28.35 L 23.07,27.50 L 14.80,25.64 L 9.64,26.48 L 5.61,31.80 L 0.00,40.00 L -8.29,46.99 L -17.72,48.69 L -25.20,43.64 L -28.35,33.79 L -27.50,23.07 L -25.64,14.80 L -26.48,9.64 L -31.80,5.61 L -40.00,0.00 L -46.99,-8.29 L -48.69,-17.72 L -43.64,-25.20 L -33.79,-28.35 L -23.07,-27.50 L -14.80,-25.64 L -9.64,-26.48 L -5.61,-31.80 L -0.00,-40.00 L 8.29,-46.99 L 17.72,-48.69 L 25.20,-43.64 L 28.35,-33.79 L 27.50,-23.07 L 25.64,-14.80 L 26.48,-9.64 L 31.80,-5.61 L 40.00,-0.00 Z" fill="url(#muy_bien_grad)" stroke="#FFEB3B" stroke-opacity="0.4" stroke-width="1.5" opacity="0.5499999999999999">
          <animateTransform attributeName="transform" attributeType="XML"
            type="scale" values="1;1.03;1" dur="4s" repeatCount="indefinite"/>
        </path>
        <path d="M 50.00,0.00 L 58.74,10.36 L 60.87,22.15 L 54.55,31.50 L 42.23,35.44 L 28.84,34.37 L 18.50,32.05 L 12.05,33.10 L 7.01,39.75 L 0.00,50.00 L -10.36,58.74 L -22.15,60.87 L -31.50,54.55 L -35.44,42.23 L -34.37,28.84 L -32.05,18.50 L -33.10,12.05 L -39.75,7.01 L -50.00,0.00 L -58.74,-10.36 L -60.87,-22.15 L -54.55,-31.50 L -42.23,-35.44 L -28.84,-34.37 L -18.50,-32.05 L -12.05,-33.10 L -7.01,-39.75 L -0.00,-50.00 L 10.36,-58.74 L 22.15,-60.87 L 31.50,-54.55 L 35.44,-42.23 L 34.37,-28.84 L 32.05,-18.50 L 33.10,-12.05 L 39.75,-7.01 L 50.00,-0.00 Z" fill="url(#muy_bien_grad)" stroke="#FFEB3B" stroke-opacity="0.5" stroke-width="1.5" opacity="0.39999999999999997">
          <animateTransform attributeName="transform" attributeType="XML"
            type="scale" values="1;1.03;1" dur="4s" repeatCount="indefinite"/>
        </path>
        <path d="M 60.00,0.00 L 70.48,12.43 L 73.04,26.58 L 65.46,37.79 L 50.68,42.52 L 34.61,41.25 L 22.21,38.46 L 14.46,39.72 L 8.41,47.69 L 0.00,60.00 L -12.43,70.48 L -26.58,73.04 L -37.79,65.46 L -42.52,50.68 L -41.25,34.61 L -38.46,22.21 L -39.72,14.46 L -47.69,8.41 L -60.00,0.00 L -70.48,-12.43 L -73.04,-26.58 L -65.46,-37.79 L -50.68,-42.52 L -34.61,-41.25 L -22.21,-38.46 L -14.46,-39.72 L -8.41,-47.69 L -0.00,-60.00 L 12.43,-70.48 L 26.58,-73.04 L 37.79,-65.46 L 42.52,-50.68 L 41.25,-34.61 L 38.46,-22.21 L 39.72,-14.46 L 47.69,-8.41 L 60.00,-0.00 Z" fill="url(#muy_bien_grad)" stroke="#FFEB3B" stroke-opacity="0.6000000000000001" stroke-width="1.5" opacity="0.25">
          <animateTransform attributeName="transform" attributeType="XML"
            type="scale" values="1;1.03;1" dur="4s" repeatCount="indefinite"/>
        </path>
    </g>
</svg>