<svg width="200" height="200" viewBox="0 0 200 200" xmlns="http://www.w3.org/2000/svg">
    <defs>
        <radialGradient id="normal_grad" cx="50%" cy="50%" r="50%">
            <stop offset="0%" stop-color="#81D4FA" stop-opacity="1"/>
            <stop offset="100%" stop-color="#81D4FA" stop-opacity="0.2"/>
        </radialGradient>
    </defs>
    <g transform="translate(100,100)">
        
        <path d="M 30.00,0.00 L 29.54,5.21 L 28.19,10.26 L 25.98,15.00 L 22.98,19.28 L 19.28,22.98 L 15.00,25.98 L 10.26,28.19 L 5.21,29.54 L 0.00,30.00 L -5.21,29.54 L -10.26,28.19 L -15.00,25.98 L -19.28,22.98 L -22.98,19.28 L -25.98,15.00 L -28.19,10.26 L -29.54,5.21 L -30.00,0.00 L -29.54,-5.21 L -28.19,-10.26 L -25.98,-15.00 L -22.98,-19.28 L -19.28,-22.98 L -15.00,-25.98 L -10.26,-28.19 L -5.21,-29.54 L -0.00,-30.00 L 5.21,-29.54 L 10.26,-28.19 L 15.00,-25.98 L 19.28,-22.98 L 22.98,-19.28 L 25.98,-15.00 L 28.19,-10.26 L 29.54,-5.21 L 30.00,-0.00 Z" fill="url(#normal_grad)" stroke="#81D4FA" stroke-opacity="0.3" stroke-width="1.5" opacity="0.7">
          <animateTransform attributeName="transform" attributeType="XML"
            type="scale" values="1;1.03;1" dur="4s" repeatCount="indefinite"/>
        </path>
        <path d="M 40.00,0.00 L 39.39,6.95 L 37.59,13.68 L 34.64,20.00 L 30.64,25.71 L 25.71,30.64 L 20.00,34.64 L 13.68,37.59 L 6.95,39.39 L 0.00,40.00 L -6.95,39.39 L -13.68,37.59 L -20.00,34.64 L -25.71,30.64 L -30.64,25.71 L -34.64,20.00 L -37.59,13.68 L -39.39,6.95 L -40.00,0.00 L -39.39,-6.95 L -37.59,-13.68 L -34.64,-20.00 L -30.64,-25.71 L -25.71,-30.64 L -20.00,-34.64 L -13.68,-37.59 L -6.95,-39.39 L -0.00,-40.00 L 6.95,-39.39 L 13.68,-37.59 L 20.00,-34.64 L 25.71,-30.64 L 30.64,-25.71 L 34.64,-20.00 L 37.59,-13.68 L 39.39,-6.95 L 40.00,-0.00 Z" fill="url(#normal_grad)" stroke="#81D4FA" stroke-opacity="0.4" stroke-width="1.5" opacity="0.5499999999999999">
          <animateTransform attributeName="transform" attributeType="XML"
            type="scale" values="1;1.03;1" dur="4s" repeatCount="indefinite"/>
        </path>
        <path d="M 50.00,0.00 L 49.24,8.68 L 46.98,17.10 L 43.30,25.00 L 38.30,32.14 L 32.14,38.30 L 25.00,43.30 L 17.10,46.98 L 8.68,49.24 L 0.00,50.00 L -8.68,49.24 L -17.10,46.98 L -25.00,43.30 L -32.14,38.30 L -38.30,32.14 L -43.30,25.00 L -46.98,17.10 L -49.24,8.68 L -50.00,0.00 L -49.24,-8.68 L -46.98,-17.10 L -43.30,-25.00 L -38.30,-32.14 L -32.14,-38.30 L -25.00,-43.30 L -17.10,-46.98 L -8.68,-49.24 L -0.00,-50.00 L 8.68,-49.24 L 17.10,-46.98 L 25.00,-43.30 L 32.14,-38.30 L 38.30,-32.14 L 43.30,-25.00 L 46.98,-17.10 L 49.24,-8.68 L 50.00,-0.00 Z" fill="url(#normal_grad)" stroke="#81D4FA" stroke-opacity="0.5" stroke-width="1.5" opacity="0.39999999999999997">
          <animateTransform attributeName="transform" attributeType="XML"
            type="scale" values="1;1.03;1" dur="4s" repeatCount="indefinite"/>
        </path>
        <path d="M 60.00,0.00 L 59.09,10.42 L 56.38,20.52 L 51.96,30.00 L 45.96,38.57 L 38.57,45.96 L 30.00,51.96 L 20.52,56.38 L 10.42,59.09 L 0.00,60.00 L -10.42,59.09 L -20.52,56.38 L -30.00,51.96 L -38.57,45.96 L -45.96,38.57 L -51.96,30.00 L -56.38,20.52 L -59.09,10.42 L -60.00,0.00 L -59.09,-10.42 L -56.38,-20.52 L -51.96,-30.00 L -45.96,-38.57 L -38.57,-45.96 L -30.00,-51.96 L -20.52,-56.38 L -10.42,-59.09 L -0.00,-60.00 L 10.42,-59.09 L 20.52,-56.38 L 30.00,-51.96 L 38.57,-45.96 L 45.96,-38.57 L 51.96,-30.00 L 56.38,-20.52 L 59.09,-10.42 L 60.00,-0.00 Z" fill="url(#normal_grad)" stroke="#81D4FA" stroke-opacity="0.6000000000000001" stroke-width="1.5" opacity="0.25">
          <animateTransform attributeName="transform" attributeType="XML"
            type="scale" values="1;1.03;1" dur="4s" repeatCount="indefinite"/>
        </path>
    </g>
</svg>