<?xml version="1.0" standalone="no"?>
<!DOCTYPE svg PUBLIC "-//W3C//DTD SVG 20010904//EN"
 "http://www.w3.org/TR/2001/REC-SVG-20010904/DTD/svg10.dtd">
<svg version="1.0" xmlns="http://www.w3.org/2000/svg"
 width="1024.000000pt" height="1024.000000pt" viewBox="0 0 1024.000000 1024.000000"
 preserveAspectRatio="xMidYMid meet">

<g transform="translate(0.000000,1024.000000) scale(0.100000,-0.100000)"
fill="#000000" stroke="none">
<path d="M7305 8225 c-105 -37 -135 -176 -56 -256 19 -19 60 -37 132 -60 582
-179 948 -492 1140 -976 39 -100 84 -274 98 -388 25 -188 37 -217 108 -254 59
-30 167 2 203 62 26 42 26 114 0 277 -57 373 -196 679 -433 958 -253 298 -663
545 -1057 637 -79 18 -84 18 -135 0z"/>
<path d="M4103 7805 c-303 -55 -569 -238 -719 -495 -21 -36 -45 -85 -55 -109
l-16 -44 -134 -2 c-101 -2 -154 -8 -213 -24 -239 -64 -451 -233 -555 -441 -80
-159 -97 -310 -57 -483 l14 -59 -37 -15 c-304 -126 -498 -359 -556 -668 -30
-156 -5 -337 66 -478 39 -77 110 -179 145 -206 l26 -21 -29 -27 c-87 -84 -160
-206 -195 -328 -28 -100 -31 -274 -5 -375 39 -149 144 -309 272 -413 66 -54
194 -119 267 -137 46 -12 47 -13 40 -44 -12 -55 -5 -238 12 -311 22 -94 103
-256 166 -332 106 -128 271 -232 435 -274 83 -21 258 -29 341 -15 l40 7 13
-43 c7 -24 29 -74 49 -113 46 -90 181 -227 267 -272 228 -119 555 -116 658 7
39 46 43 89 21 233 -11 70 -17 127 -14 126 3 0 19 -30 37 -67 84 -175 275
-329 463 -373 77 -17 222 -15 299 5 337 88 571 443 571 867 0 93 -2 110 -17
117 -10 5 -72 12 -138 15 -303 13 -546 157 -675 399 -152 285 -92 619 159 889
127 137 250 218 426 278 110 38 132 49 140 70 4 9 6 623 5 1364 -1 1299 -2
1350 -20 1410 -35 112 -118 218 -228 290 -91 59 -157 85 -250 99 -129 18 -203
-4 -256 -75 -20 -27 -21 -42 -26 -435 l-5 -407 -27 -68 c-33 -86 -66 -134
-141 -203 -124 -115 -298 -166 -469 -138 -42 7 -52 24 -14 24 47 0 181 52 247
95 72 48 147 132 184 206 50 99 55 141 55 510 0 339 -1 345 -23 384 -29 52
-87 83 -185 101 -95 17 -264 16 -359 -1z m-665 -2141 c47 -19 97 -67 125 -119
31 -58 31 -202 0 -261 -50 -95 -129 -139 -235 -132 -108 7 -184 79 -215 202
-15 62 -15 71 1 128 24 87 67 145 130 174 60 28 139 32 194 8z m1299 -5 c190
-92 189 -403 -2 -490 -59 -27 -150 -25 -206 4 -76 41 -139 149 -139 242 0 93
63 201 139 242 58 31 147 32 208 2z m-1581 -1044 c20 -8 66 -42 102 -76 126
-116 233 -176 397 -225 122 -36 318 -38 440 -5 158 42 278 113 391 230 65 68
120 96 168 85 90 -20 129 -98 89 -181 -39 -82 -191 -216 -333 -292 -93 -50
-236 -96 -342 -112 -128 -19 -350 -6 -478 26 -240 62 -486 212 -580 353 -53
80 -34 164 44 198 40 17 59 17 102 -1z"/>
<path d="M7204 7572 c-22 -11 -50 -31 -61 -46 -25 -31 -37 -93 -28 -136 9 -41
61 -92 110 -108 225 -76 352 -140 466 -235 113 -94 208 -241 259 -402 39 -126
56 -154 103 -175 55 -25 100 -25 147 1 41 23 80 82 80 121 0 39 -36 169 -69
253 -126 315 -429 589 -782 709 -108 36 -174 42 -225 18z"/>
<path d="M6135 7436 c-40 -18 -73 -56 -85 -97 -6 -21 -10 -575 -10 -1496 0
-805 -3 -1463 -7 -1463 -5 0 -42 7 -83 16 -108 23 -275 21 -375 -6 -256 -67
-471 -255 -540 -473 -20 -61 -25 -99 -25 -175 0 -172 41 -275 154 -388 123
-123 279 -184 471 -184 299 0 565 163 695 425 74 150 70 60 70 1523 0 1221 1
1312 17 1312 26 0 237 -68 345 -111 353 -140 571 -298 657 -473 60 -122 75
-208 68 -385 -8 -203 -40 -343 -135 -584 -41 -104 -49 -118 -67 -113 -11 3
-45 12 -75 21 -115 33 -237 -3 -339 -100 -80 -76 -113 -151 -119 -265 -5 -102
20 -179 76 -242 69 -76 181 -117 283 -103 222 31 450 313 617 765 131 352 178
614 169 934 -4 160 -8 194 -35 296 -58 222 -145 381 -294 536 -140 145 -244
215 -768 514 -118 68 -282 163 -364 213 -206 124 -233 133 -301 103z"/>
</g>
</svg>
